<svg width="266" height="96" viewBox="0 0 266 96" fill="none" xmlns="http://www.w3.org/2000/svg">
<path d="M119.872 26.432C119.872 27.328 119.656 28.168 119.224 28.952C118.808 29.736 118.144 30.368 117.232 30.848C116.336 31.328 115.2 31.568 113.824 31.568H111.016V38H107.656V21.248H113.824C115.12 21.248 116.224 21.472 117.136 21.92C118.048 22.368 118.728 22.984 119.176 23.768C119.64 24.552 119.872 25.44 119.872 26.432ZM113.68 28.856C114.608 28.856 115.296 28.648 115.744 28.232C116.192 27.8 116.416 27.2 116.416 26.432C116.416 24.8 115.504 23.984 113.68 23.984H111.016V28.856H113.68ZM125.618 26.768C126.05 26.064 126.61 25.512 127.298 25.112C128.002 24.712 128.802 24.512 129.698 24.512V28.04H128.81C127.754 28.04 126.954 28.288 126.41 28.784C125.882 29.28 125.618 30.144 125.618 31.376V38H122.258V24.704H125.618V26.768ZM137.865 38.216C136.585 38.216 135.433 37.936 134.409 37.376C133.385 36.8 132.577 35.992 131.985 34.952C131.409 33.912 131.121 32.712 131.121 31.352C131.121 29.992 131.417 28.792 132.009 27.752C132.617 26.712 133.441 25.912 134.481 25.352C135.521 24.776 136.681 24.488 137.961 24.488C139.241 24.488 140.401 24.776 141.441 25.352C142.481 25.912 143.297 26.712 143.889 27.752C144.497 28.792 144.801 29.992 144.801 31.352C144.801 32.712 144.489 33.912 143.865 34.952C143.257 35.992 142.425 36.8 141.369 37.376C140.329 37.936 139.161 38.216 137.865 38.216ZM137.865 35.288C138.473 35.288 139.041 35.144 139.569 34.856C140.113 34.552 140.545 34.104 140.865 33.512C141.185 32.92 141.345 32.2 141.345 31.352C141.345 30.088 141.009 29.12 140.337 28.448C139.681 27.76 138.873 27.416 137.913 27.416C136.953 27.416 136.145 27.76 135.489 28.448C134.849 29.12 134.529 30.088 134.529 31.352C134.529 32.616 134.841 33.592 135.465 34.28C136.105 34.952 136.905 35.288 137.865 35.288ZM146.401 31.304C146.401 29.96 146.665 28.768 147.193 27.728C147.737 26.688 148.473 25.888 149.401 25.328C150.329 24.768 151.361 24.488 152.497 24.488C153.361 24.488 154.185 24.68 154.969 25.064C155.753 25.432 156.377 25.928 156.841 26.552V20.24H160.249V38H156.841V36.032C156.425 36.688 155.841 37.216 155.089 37.616C154.337 38.016 153.465 38.216 152.473 38.216C151.353 38.216 150.329 37.928 149.401 37.352C148.473 36.776 147.737 35.968 147.193 34.928C146.665 33.872 146.401 32.664 146.401 31.304ZM156.865 31.352C156.865 30.536 156.705 29.84 156.385 29.264C156.065 28.672 155.633 28.224 155.089 27.92C154.545 27.6 153.961 27.44 153.337 27.44C152.713 27.44 152.137 27.592 151.609 27.896C151.081 28.2 150.649 28.648 150.313 29.24C149.993 29.816 149.833 30.504 149.833 31.304C149.833 32.104 149.993 32.808 150.313 33.416C150.649 34.008 151.081 34.464 151.609 34.784C152.153 35.104 152.729 35.264 153.337 35.264C153.961 35.264 154.545 35.112 155.089 34.808C155.633 34.488 156.065 34.04 156.385 33.464C156.705 32.872 156.865 32.168 156.865 31.352ZM176.083 24.704V38H172.699V36.32C172.267 36.896 171.699 37.352 170.995 37.688C170.307 38.008 169.555 38.168 168.739 38.168C167.699 38.168 166.779 37.952 165.979 37.52C165.179 37.072 164.547 36.424 164.083 35.576C163.635 34.712 163.411 33.688 163.411 32.504V24.704H166.771V32.024C166.771 33.08 167.035 33.896 167.563 34.472C168.091 35.032 168.811 35.312 169.723 35.312C170.651 35.312 171.379 35.032 171.907 34.472C172.435 33.896 172.699 33.08 172.699 32.024V24.704H176.083ZM178.534 31.352C178.534 29.976 178.814 28.776 179.374 27.752C179.934 26.712 180.71 25.912 181.702 25.352C182.694 24.776 183.83 24.488 185.11 24.488C186.758 24.488 188.118 24.904 189.19 25.736C190.278 26.552 191.006 27.704 191.374 29.192H187.75C187.558 28.616 187.23 28.168 186.766 27.848C186.318 27.512 185.758 27.344 185.086 27.344C184.126 27.344 183.366 27.696 182.806 28.4C182.246 29.088 181.966 30.072 181.966 31.352C181.966 32.616 182.246 33.6 182.806 34.304C183.366 34.992 184.126 35.336 185.086 35.336C186.446 35.336 187.334 34.728 187.75 33.512H191.374C191.006 34.952 190.278 36.096 189.19 36.944C188.102 37.792 186.742 38.216 185.11 38.216C183.83 38.216 182.694 37.936 181.702 37.376C180.71 36.8 179.934 36 179.374 34.976C178.814 33.936 178.534 32.728 178.534 31.352ZM197.748 27.464V33.896C197.748 34.344 197.852 34.672 198.06 34.88C198.284 35.072 198.652 35.168 199.164 35.168H200.724V38H198.612C195.78 38 194.364 36.624 194.364 33.872V27.464H192.78V24.704H194.364V21.416H197.748V24.704H200.724V27.464H197.748ZM204.844 23.12C204.252 23.12 203.756 22.936 203.356 22.568C202.972 22.184 202.78 21.712 202.78 21.152C202.78 20.592 202.972 20.128 203.356 19.76C203.756 19.376 204.252 19.184 204.844 19.184C205.436 19.184 205.924 19.376 206.308 19.76C206.708 20.128 206.908 20.592 206.908 21.152C206.908 21.712 206.708 22.184 206.308 22.568C205.924 22.936 205.436 23.12 204.844 23.12ZM206.5 24.704V38H203.14V24.704H206.5ZM215.364 34.904L218.724 24.704H222.3L217.38 38H213.3L208.404 24.704H212.004L215.364 34.904ZM225.891 23.12C225.299 23.12 224.803 22.936 224.403 22.568C224.019 22.184 223.827 21.712 223.827 21.152C223.827 20.592 224.019 20.128 224.403 19.76C224.803 19.376 225.299 19.184 225.891 19.184C226.483 19.184 226.971 19.376 227.355 19.76C227.755 20.128 227.955 20.592 227.955 21.152C227.955 21.712 227.755 22.184 227.355 22.568C226.971 22.936 226.483 23.12 225.891 23.12ZM227.547 24.704V38H224.187V24.704H227.547ZM234.779 27.464V33.896C234.779 34.344 234.883 34.672 235.091 34.88C235.315 35.072 235.683 35.168 236.195 35.168H237.755V38H235.643C232.811 38 231.395 36.624 231.395 33.872V27.464H229.811V24.704H231.395V21.416H234.779V24.704H237.755V27.464H234.779ZM252.892 24.704L244.66 44.288H241.084L243.964 37.664L238.636 24.704H242.404L245.836 33.992L249.316 24.704H252.892ZM106.84 65.6C106.84 63.952 107.208 62.48 107.944 61.184C108.696 59.872 109.712 58.856 110.992 58.136C112.288 57.4 113.736 57.032 115.336 57.032C117.208 57.032 118.848 57.512 120.256 58.472C121.664 59.432 122.648 60.76 123.208 62.456H119.344C118.96 61.656 118.416 61.056 117.712 60.656C117.024 60.256 116.224 60.056 115.312 60.056C114.336 60.056 113.464 60.288 112.696 60.752C111.944 61.2 111.352 61.84 110.92 62.672C110.504 63.504 110.296 64.48 110.296 65.6C110.296 66.704 110.504 67.68 110.92 68.528C111.352 69.36 111.944 70.008 112.696 70.472C113.464 70.92 114.336 71.144 115.312 71.144C116.224 71.144 117.024 70.944 117.712 70.544C118.416 70.128 118.96 69.52 119.344 68.72H123.208C122.648 70.432 121.664 71.768 120.256 72.728C118.864 73.672 117.224 74.144 115.336 74.144C113.736 74.144 112.288 73.784 110.992 73.064C109.712 72.328 108.696 71.312 107.944 70.016C107.208 68.72 106.84 67.248 106.84 65.6ZM131.982 74.216C130.702 74.216 129.55 73.936 128.526 73.376C127.502 72.8 126.694 71.992 126.102 70.952C125.526 69.912 125.238 68.712 125.238 67.352C125.238 65.992 125.534 64.792 126.126 63.752C126.734 62.712 127.558 61.912 128.598 61.352C129.638 60.776 130.798 60.488 132.078 60.488C133.358 60.488 134.518 60.776 135.558 61.352C136.598 61.912 137.414 62.712 138.006 63.752C138.614 64.792 138.918 65.992 138.918 67.352C138.918 68.712 138.606 69.912 137.982 70.952C137.374 71.992 136.542 72.8 135.486 73.376C134.446 73.936 133.278 74.216 131.982 74.216ZM131.982 71.288C132.59 71.288 133.158 71.144 133.686 70.856C134.23 70.552 134.662 70.104 134.982 69.512C135.302 68.92 135.462 68.2 135.462 67.352C135.462 66.088 135.126 65.12 134.454 64.448C133.798 63.76 132.99 63.416 132.03 63.416C131.07 63.416 130.262 63.76 129.606 64.448C128.966 65.12 128.646 66.088 128.646 67.352C128.646 68.616 128.958 69.592 129.582 70.28C130.222 70.952 131.022 71.288 131.982 71.288ZM148.751 60.512C150.335 60.512 151.615 61.016 152.591 62.024C153.567 63.016 154.055 64.408 154.055 66.2V74H150.695V66.656C150.695 65.6 150.431 64.792 149.903 64.232C149.375 63.656 148.655 63.368 147.743 63.368C146.815 63.368 146.079 63.656 145.535 64.232C145.007 64.792 144.743 65.6 144.743 66.656V74H141.383V60.704H144.743V62.36C145.191 61.784 145.759 61.336 146.447 61.016C147.151 60.68 147.919 60.512 148.751 60.512ZM162.338 74.216C161.25 74.216 160.274 74.024 159.41 73.64C158.546 73.24 157.858 72.704 157.346 72.032C156.85 71.36 156.578 70.616 156.53 69.8H159.914C159.978 70.312 160.226 70.736 160.658 71.072C161.106 71.408 161.658 71.576 162.314 71.576C162.954 71.576 163.45 71.448 163.802 71.192C164.17 70.936 164.354 70.608 164.354 70.208C164.354 69.776 164.13 69.456 163.682 69.248C163.25 69.024 162.554 68.784 161.594 68.528C160.602 68.288 159.786 68.04 159.146 67.784C158.522 67.528 157.978 67.136 157.514 66.608C157.066 66.08 156.842 65.368 156.842 64.472C156.842 63.736 157.05 63.064 157.466 62.456C157.898 61.848 158.506 61.368 159.29 61.016C160.09 60.664 161.026 60.488 162.098 60.488C163.682 60.488 164.946 60.888 165.89 61.688C166.834 62.472 167.354 63.536 167.45 64.88H164.234C164.186 64.352 163.962 63.936 163.562 63.632C163.178 63.312 162.658 63.152 162.002 63.152C161.394 63.152 160.922 63.264 160.586 63.488C160.266 63.712 160.106 64.024 160.106 64.424C160.106 64.872 160.33 65.216 160.778 65.456C161.226 65.68 161.922 65.912 162.866 66.152C163.826 66.392 164.618 66.64 165.242 66.896C165.866 67.152 166.402 67.552 166.85 68.096C167.314 68.624 167.554 69.328 167.57 70.208C167.57 70.976 167.354 71.664 166.922 72.272C166.506 72.88 165.898 73.36 165.098 73.712C164.314 74.048 163.394 74.216 162.338 74.216ZM174.24 63.464V69.896C174.24 70.344 174.344 70.672 174.552 70.88C174.776 71.072 175.144 71.168 175.656 71.168H177.216V74H175.104C172.272 74 170.856 72.624 170.856 69.872V63.464H169.272V60.704H170.856V57.416H174.24V60.704H177.216V63.464H174.24ZM182.993 62.768C183.425 62.064 183.985 61.512 184.673 61.112C185.377 60.712 186.177 60.512 187.073 60.512V64.04H186.185C185.129 64.04 184.329 64.288 183.785 64.784C183.257 65.28 182.993 66.144 182.993 67.376V74H179.633V60.704H182.993V62.768ZM201.888 60.704V74H198.504V72.32C198.072 72.896 197.504 73.352 196.8 73.688C196.112 74.008 195.36 74.168 194.544 74.168C193.504 74.168 192.584 73.952 191.784 73.52C190.984 73.072 190.352 72.424 189.888 71.576C189.44 70.712 189.216 69.688 189.216 68.504V60.704H192.576V68.024C192.576 69.08 192.84 69.896 193.368 70.472C193.896 71.032 194.616 71.312 195.528 71.312C196.456 71.312 197.184 71.032 197.712 70.472C198.24 69.896 198.504 69.08 198.504 68.024V60.704H201.888ZM204.339 67.352C204.339 65.976 204.619 64.776 205.179 63.752C205.739 62.712 206.515 61.912 207.507 61.352C208.499 60.776 209.635 60.488 210.915 60.488C212.563 60.488 213.923 60.904 214.995 61.736C216.083 62.552 216.811 63.704 217.179 65.192H213.555C213.363 64.616 213.035 64.168 212.571 63.848C212.123 63.512 211.563 63.344 210.891 63.344C209.931 63.344 209.171 63.696 208.611 64.4C208.051 65.088 207.771 66.072 207.771 67.352C207.771 68.616 208.051 69.6 208.611 70.304C209.171 70.992 209.931 71.336 210.891 71.336C212.251 71.336 213.139 70.728 213.555 69.512H217.179C216.811 70.952 216.083 72.096 214.995 72.944C213.907 73.792 212.547 74.216 210.915 74.216C209.635 74.216 208.499 73.936 207.507 73.376C206.515 72.8 205.739 72 205.179 70.976C204.619 69.936 204.339 68.728 204.339 67.352ZM223.552 63.464V69.896C223.552 70.344 223.656 70.672 223.864 70.88C224.088 71.072 224.456 71.168 224.968 71.168H226.528V74H224.416C221.584 74 220.168 72.624 220.168 69.872V63.464H218.584V60.704H220.168V57.416H223.552V60.704H226.528V63.464H223.552ZM230.649 59.12C230.057 59.12 229.561 58.936 229.161 58.568C228.777 58.184 228.585 57.712 228.585 57.152C228.585 56.592 228.777 56.128 229.161 55.76C229.561 55.376 230.057 55.184 230.649 55.184C231.241 55.184 231.729 55.376 232.113 55.76C232.513 56.128 232.713 56.592 232.713 57.152C232.713 57.712 232.513 58.184 232.113 58.568C231.729 58.936 231.241 59.12 230.649 59.12ZM232.305 60.704V74H228.945V60.704H232.305ZM241.529 74.216C240.249 74.216 239.097 73.936 238.073 73.376C237.049 72.8 236.241 71.992 235.649 70.952C235.073 69.912 234.785 68.712 234.785 67.352C234.785 65.992 235.081 64.792 235.673 63.752C236.281 62.712 237.105 61.912 238.145 61.352C239.185 60.776 240.345 60.488 241.625 60.488C242.905 60.488 244.065 60.776 245.105 61.352C246.145 61.912 246.961 62.712 247.553 63.752C248.161 64.792 248.465 65.992 248.465 67.352C248.465 68.712 248.153 69.912 247.529 70.952C246.921 71.992 246.089 72.8 245.033 73.376C243.993 73.936 242.825 74.216 241.529 74.216ZM241.529 71.288C242.137 71.288 242.705 71.144 243.233 70.856C243.777 70.552 244.209 70.104 244.529 69.512C244.849 68.92 245.009 68.2 245.009 67.352C245.009 66.088 244.673 65.12 244.001 64.448C243.345 63.76 242.537 63.416 241.577 63.416C240.617 63.416 239.809 63.76 239.153 64.448C238.513 65.12 238.193 66.088 238.193 67.352C238.193 68.616 238.505 69.592 239.129 70.28C239.769 70.952 240.569 71.288 241.529 71.288ZM258.297 60.512C259.881 60.512 261.161 61.016 262.137 62.024C263.113 63.016 263.601 64.408 263.601 66.2V74H260.241V66.656C260.241 65.6 259.977 64.792 259.449 64.232C258.921 63.656 258.201 63.368 257.289 63.368C256.361 63.368 255.625 63.656 255.081 64.232C254.553 64.792 254.289 65.6 254.289 66.656V74H250.929V60.704H254.289V62.36C254.737 61.784 255.305 61.336 255.993 61.016C256.697 60.68 257.465 60.512 258.297 60.512Z" fill="white"/>
<path d="M89.2155 70.5L94.392 57.558L91.6065 56.4435L85.9845 70.5H85.5V52.5H82.5V28.5H76.5V22.5H73.5V28.5H70.5V19.5H67.5V28.5H64.5V22.5H61.5V28.5H55.5V46.5H49.5V54.1935C45.9645 49.8525 41.139 46.6905 35.6625 45.2415L34.9815 43.2C37.1685 42.5955 38.9655 41.049 39.864 39H40.5C43.809 39 46.5 36.309 46.5 33V25.5C48.1545 25.5 49.5 24.1545 49.5 22.5V19.5C49.5 17.8455 48.1545 16.5 46.5 16.5H46.239C44.8035 7.86 37.4145 1.5 28.5 1.5C19.5855 1.5 12.1965 7.86 10.761 16.5H10.5C8.8455 16.5 7.5 17.8455 7.5 19.5V22.5C7.5 24.1545 8.8455 25.5 10.5 25.5V33C10.5 36.309 13.191 39 16.5 39H17.136C18.036 41.049 19.8315 42.597 22.0185 43.2L21.3375 45.2415C9.615 48.333 1.5 58.812 1.5 71.013V72C1.5 78.396 5.166 83.9415 10.5 86.679V94.5H55.5V82.5H60.1515C60.849 85.9185 63.8775 88.5 67.5 88.5C71.1225 88.5 74.151 85.9185 74.8485 82.5H82.377C88.3995 82.5 93.4905 78.1875 94.4805 72.2475L94.7715 70.5H89.2155ZM70.5 70.5V55.5H82.5V70.5H70.5ZM58.5 31.5H79.5V52.5H70.5V46.5H58.5V31.5ZM67.5 49.5V70.5H52.5V49.5H67.5ZM49.5 59.514V70.5H49.0155L43.392 56.442L40.6065 57.5565L45.7845 70.5H40.23L40.521 72.2475C40.9185 74.6325 41.985 76.749 43.5 78.435V91.5H36V88.5C38.481 88.5 40.5 86.481 40.5 84C40.5 81.519 38.481 79.5 36 79.5V48.4905C41.7195 50.3085 46.557 54.2325 49.5 59.514ZM31.9185 43.5L32.844 46.278L28.5 52.7955L24.1545 46.278L25.0815 43.5H31.9185ZM33 58.7235L30.357 55.419L33 51.4545V58.7235ZM24 58.7235V51.4545L26.643 55.419L24 58.7235ZM24 63.525L28.5 57.9L33 63.525V76.764C32.529 76.5975 32.0265 76.5 31.5 76.5H29.7435C28.542 76.5 27.411 76.968 26.5605 77.8185L25.0215 79.3575L24 79.1295V63.525ZM27 81.621L28.6815 79.9395C28.965 79.656 29.343 79.5 29.7435 79.5H31.5C32.3265 79.5 33 80.1735 33 81V82.5H36C36.8265 82.5 37.5 83.1735 37.5 84C37.5 84.8265 36.8265 85.5 36 85.5H27V81.621ZM33 88.5V91.5H24V88.5H33ZM40.5 36V30C42.1545 30 43.5 31.3455 43.5 33C43.5 34.6545 42.1545 36 40.5 36ZM43.5 27.834C42.6135 27.318 41.598 27 40.5 27V25.5H43.5V27.834ZM43.194 16.5H33V5.187C38.1525 6.7845 42.105 11.058 43.194 16.5ZM30 4.575V16.5H27V4.575C27.4935 4.527 27.993 4.5 28.5 4.5C29.007 4.5 29.5065 4.527 30 4.575ZM24 5.187V16.5H13.806C14.895 11.058 18.8475 6.7845 24 5.187V5.187ZM10.4985 19.5H10.5H46.5V22.5H10.5L10.4985 19.5ZM16.5 25.5V27C15.402 27 14.3865 27.318 13.5 27.834V25.5H16.5ZM13.5 33C13.5 31.3455 14.8455 30 16.5 30V36C14.8455 36 13.5 34.6545 13.5 33ZM19.5 36V25.5H37.5V36C37.5 38.481 35.481 40.5 33 40.5H24C21.519 40.5 19.5 38.481 19.5 36ZM4.5 72V71.013C4.5 60.573 11.196 51.561 21 48.4695V78.465L19.3725 78.1035C15.915 77.334 13.5 74.3235 13.5 70.7805V64.5H10.5V70.7805C10.5 75.7395 13.881 79.9545 18.7215 81.03L24 82.203V85.5H18C10.557 85.5 4.5 79.443 4.5 72V72ZM13.5 87.861C14.9325 88.2675 16.4385 88.5 18 88.5H21V91.5H13.5V87.861ZM46.5 91.5V80.871C48.2745 81.891 50.325 82.473 52.5 82.4955V91.5H46.5ZM67.5 85.5C65.019 85.5 63 83.481 63 81C63 80.1735 63.6735 79.5 64.5 79.5H70.5C71.3265 79.5 72 80.1735 72 81C72 83.481 69.981 85.5 67.5 85.5ZM82.3755 79.5H74.7225C74.1015 77.7585 72.4515 76.5 70.4985 76.5H64.4985C62.5455 76.5 60.8955 77.7585 60.2745 79.5H52.6215C48.6855 79.5 45.2775 77.0625 43.944 73.5H91.05C89.7195 77.0625 86.313 79.5 82.3755 79.5V79.5Z" fill="white"/>
<path d="M73.5 34.5H76.5V37.5H73.5V34.5Z" fill="white"/>
<path d="M67.5 34.5H70.5V37.5H67.5V34.5Z" fill="white"/>
<path d="M61.5 34.5H64.5V37.5H61.5V34.5Z" fill="white"/>
<path d="M73.5 40.5H76.5V43.5H73.5V40.5Z" fill="white"/>
<path d="M61.5 40.5H64.5V43.5H61.5V40.5Z" fill="white"/>
<path d="M67.5 40.5H70.5V43.5H67.5V40.5Z" fill="white"/>
<path d="M73.5 46.5H76.5V49.5H73.5V46.5Z" fill="white"/>
<path d="M55.5 52.5H58.5V67.5H55.5V52.5Z" fill="white"/>
<path d="M61.5 52.5H64.5V67.5H61.5V52.5Z" fill="white"/>
<path d="M73.5 58.5H79.5V61.5H73.5V58.5Z" fill="white"/>
<path d="M73.5 64.5H79.5V67.5H73.5V64.5Z" fill="white"/>
</svg>
